<svg width="15" height="15" viewBox="0 0 15 15" fill="none" xmlns="http://www.w3.org/2000/svg">
<g clip-path="url(#clip0_19_4)">
<path d="M7.50002 14.3278C7.58058 14.3278 7.67247 14.3064 7.77568 14.2636C7.87891 14.2208 7.97082 14.1743 8.05141 14.1239C9.47134 13.2175 10.7012 12.2671 11.741 11.2727C12.7808 10.2782 13.5839 9.25608 14.1503 8.20624C14.7168 7.15637 15 6.09518 15 5.02267C15 4.35298 14.893 3.73993 14.679 3.18354C14.4651 2.62714 14.168 2.14502 13.7877 1.73716C13.4076 1.32931 12.962 1.0146 12.4509 0.793052C11.9398 0.571501 11.3872 0.460726 10.7931 0.460726C10.0579 0.460726 9.41089 0.648289 8.85197 1.02341C8.29305 1.39854 7.8424 1.89829 7.50002 2.52266C7.16265 1.90333 6.71451 1.40484 6.1556 1.02719C5.59668 0.649547 4.94714 0.460726 4.20695 0.460726C3.61279 0.460726 3.06143 0.571501 2.55287 0.793052C2.04431 1.0146 1.59869 1.32931 1.21602 1.73716C0.833336 2.14502 0.534996 2.62714 0.320997 3.18354C0.106999 3.73993 0 4.35298 0 5.02267C0 6.09518 0.283232 7.15637 0.849697 8.20624C1.41617 9.25608 2.22055 10.2782 3.26284 11.2727C4.30514 12.2671 5.53626 13.2175 6.9562 14.1239C7.03677 14.1743 7.12866 14.2208 7.23189 14.2636C7.33511 14.3064 7.42448 14.3278 7.50002 14.3278Z" fill="#FFFAF6"/>
</g>
<defs>
<clipPath id="clip0_19_4">
<rect width="15" height="14.3278" fill="white"/>
</clipPath>
</defs>
</svg>
