<svg width="25" height="28" viewBox="0 0 25 28" fill="none" xmlns="http://www.w3.org/2000/svg">
<g clip-path="url(#clip0_19_26)">
<path d="M2.54011 27.1986H22.4599C23.2522 27.1986 23.8736 27.0228 24.3242 26.6712C24.7747 26.3197 25 25.8369 25 25.2228C25 24.2722 24.7104 23.267 24.1311 22.2074C23.5518 21.1478 22.7199 20.1551 21.6355 19.2291C20.5511 18.3032 19.239 17.5505 17.699 16.9712C16.1592 16.3919 14.4237 16.1022 12.4926 16.1022C10.5714 16.1022 8.84088 16.3919 7.30096 16.9712C5.76106 17.5505 4.44644 18.3032 3.35711 19.2291C2.26778 20.1551 1.43593 21.1478 0.861559 22.2074C0.287186 23.267 0 24.2722 0 25.2228C0 25.8369 0.225293 26.3197 0.675878 26.6712C1.12646 27.0228 1.74787 27.1986 2.54011 27.1986ZM12.5075 13.4433C13.5671 13.4433 14.5475 13.1536 15.4486 12.5743C16.3498 11.995 17.0752 11.2102 17.6248 10.2199C18.1744 9.22958 18.4492 8.1155 18.4492 6.87762C18.4492 5.65955 18.1744 4.56775 17.6248 3.60221C17.0752 2.63668 16.3498 1.87663 15.4486 1.32205C14.5475 0.767487 13.5671 0.490204 12.5075 0.490204C11.4478 0.490204 10.4674 0.772438 9.56627 1.33691C8.66511 1.90138 7.93971 2.66886 7.3901 3.63935C6.84049 4.60984 6.56568 5.69917 6.56568 6.90734C6.56568 8.1353 6.84049 9.24196 7.3901 10.2273C7.93971 11.2127 8.66511 11.995 9.56627 12.5743C10.4674 13.1536 11.4478 13.4433 12.5075 13.4433Z" fill="#556832"/>
</g>
<defs>
<clipPath id="clip0_19_26">
<rect width="25" height="27.1986" fill="white"/>
</clipPath>
</defs>
</svg>
