<svg width="15" height="13" viewBox="0 0 15 13" fill="none" xmlns="http://www.w3.org/2000/svg">
<g clip-path="url(#clip0_32_139)">
<path d="M8.05727 12.4719C8.93317 12.4719 9.69803 12.3754 10.3518 12.1824C11.0056 11.9894 11.5151 11.7206 11.8804 11.3761C12.2457 11.0315 12.4284 10.6309 12.4284 10.1743C12.4284 9.86716 12.3755 9.61189 12.2696 9.40849C12.1637 9.20505 12.0423 9.02758 11.9054 8.87609C11.7684 8.72459 11.6469 8.57722 11.5411 8.43397C11.4353 8.29076 11.3823 8.12992 11.3823 7.95143C11.3823 7.78539 11.4695 7.63492 11.6438 7.5C11.8182 7.36508 12.0423 7.23121 12.3163 7.09837C12.5903 6.96554 12.8808 6.8192 13.188 6.65938C13.4952 6.49959 13.7868 6.30969 14.0629 6.08966C14.3389 5.86965 14.5641 5.60606 14.7385 5.29888C14.9128 4.9917 15 4.62432 15 4.19676C15 3.56579 14.8443 2.99294 14.533 2.47821C14.2216 1.96347 13.7806 1.52138 13.2098 1.15193C12.6391 0.782482 11.9562 0.498132 11.1613 0.298879C10.3663 0.0996264 9.48528 0 8.51807 0C7.24783 0 6.0907 0.151515 5.0467 0.454545C4.0027 0.757575 3.10398 1.18825 2.35056 1.74658C1.59713 2.3049 1.01702 2.97322 0.610211 3.75156C0.203404 4.52988 0 5.39435 0 6.34495C0 7.25819 0.193026 8.09049 0.579078 8.84185C0.965132 9.59321 1.51515 10.2397 2.22914 10.7815C2.94313 11.3232 3.79307 11.7404 4.77895 12.033C5.76484 12.3256 6.85761 12.4719 8.05727 12.4719ZM7.92031 10.0934C7.61728 10.0934 7.34121 10.0187 7.09212 9.86923C6.84307 9.71981 6.6428 9.51952 6.4913 9.26834C6.33977 9.01721 6.26401 8.74013 6.26401 8.43709C6.26401 8.13406 6.33977 7.85698 6.4913 7.60584C6.6428 7.35471 6.84307 7.15442 7.09212 7.00496C7.34121 6.85555 7.61728 6.78084 7.92031 6.78084C8.22747 6.78084 8.50664 6.85555 8.75781 7.00496C9.00894 7.15442 9.20922 7.35471 9.35863 7.60584C9.50809 7.85698 9.58281 8.13406 9.58281 8.43709C9.58281 8.74013 9.50809 9.01721 9.35863 9.26834C9.20922 9.51952 9.00894 9.71981 8.75781 9.86923C8.50664 10.0187 8.22747 10.0934 7.92031 10.0934Z" fill="#FFFAF6"/>
<path d="M2.94512 7.10462C2.66285 7.10462 2.41897 7.00188 2.21349 6.7964C2.00801 6.59092 1.90527 6.34496 1.90527 6.05853C1.90527 5.78455 2.01009 5.54483 2.21972 5.33935C2.42935 5.13387 2.67115 5.03113 2.94512 5.03113C3.23155 5.03113 3.47543 5.13076 3.67675 5.33001C3.87808 5.52926 3.97874 5.7721 3.97874 6.05853C3.97874 6.34496 3.87808 6.59092 3.67675 6.7964C3.47543 7.00188 3.23155 7.10462 2.94512 7.10462Z" fill="#556832"/>
<path d="M5.33665 4.90037C4.97135 4.90037 4.66002 4.7748 4.40265 4.52366C4.14529 4.27252 4.0166 3.96223 4.0166 3.59278C4.0166 3.23578 4.14529 2.93171 4.40265 2.68057C4.66002 2.42943 4.97135 2.30386 5.33665 2.30386C5.69364 2.30386 5.99979 2.42943 6.25508 2.68057C6.51039 2.93171 6.63805 3.23578 6.63805 3.59278C6.63805 3.96223 6.51039 4.27252 6.25508 4.52366C5.99979 4.7748 5.69364 4.90037 5.33665 4.90037Z" fill="#556832"/>
<path d="M8.65517 3.91656C8.36876 3.91656 8.12073 3.81486 7.91108 3.61145C7.70148 3.40805 7.59668 3.16106 7.59668 2.87048C7.59668 2.57991 7.70148 2.33292 7.91108 2.12951C8.12073 1.92611 8.36876 1.82441 8.65517 1.82441C8.94575 1.82441 9.19274 1.92611 9.39614 2.12951C9.59954 2.33292 9.70123 2.57991 9.70123 2.87048C9.70123 3.16106 9.59954 3.40805 9.39614 3.61145C9.19274 3.81486 8.94575 3.91656 8.65517 3.91656Z" fill="#556832"/>
<path d="M11.5878 4.4645C11.3512 4.4645 11.1488 4.38252 10.9807 4.21855C10.8126 4.05459 10.7285 3.8543 10.7285 3.61768C10.7285 3.38107 10.8126 3.17974 10.9807 3.0137C11.1488 2.84765 11.3512 2.76463 11.5878 2.76463C11.8202 2.76463 12.0184 2.84765 12.1824 3.0137C12.3464 3.17974 12.4284 3.38107 12.4284 3.61768C12.4284 3.8543 12.3464 4.05459 12.1824 4.21855C12.0184 4.38252 11.8202 4.4645 11.5878 4.4645Z" fill="#556832"/>
</g>
<defs>
<clipPath id="clip0_32_139">
<rect width="15" height="12.5965" fill="white"/>
</clipPath>
</defs>
</svg>
