<svg width="15" height="17" viewBox="0 0 15 17" fill="none" xmlns="http://www.w3.org/2000/svg">
<g clip-path="url(#clip0_19_12)">
<path d="M1.52407 16.3192H13.476C13.9513 16.3192 14.3242 16.2137 14.5945 16.0027C14.8648 15.7918 15 15.5021 15 15.1337C15 14.5633 14.8262 13.9602 14.4787 13.3245C14.1311 12.6887 13.632 12.093 12.9813 11.5375C12.3307 10.9819 11.5434 10.5303 10.6194 10.1827C9.69551 9.83512 8.65422 9.66131 7.49556 9.66131C6.34286 9.66131 5.30453 9.83512 4.38058 10.1827C3.45663 10.5303 2.66786 10.9819 2.01427 11.5375C1.36067 12.093 0.861558 12.6887 0.516935 13.3245C0.172312 13.9602 0 14.5633 0 15.1337C0 15.5021 0.135176 15.7918 0.405527 16.0027C0.675878 16.2137 1.04873 16.3192 1.52407 16.3192ZM7.50448 8.06598C8.14025 8.06598 8.72847 7.89218 9.26914 7.54458C9.80986 7.19699 10.2451 6.7261 10.5749 6.13193C10.9047 5.53775 11.0695 4.8693 11.0695 4.12657C11.0695 3.39573 10.9047 2.74065 10.5749 2.16132C10.2451 1.582 9.80986 1.12597 9.26914 0.793231C8.72847 0.460491 8.14025 0.294121 7.50448 0.294121C6.86871 0.294121 6.28047 0.463462 5.73977 0.802143C5.19906 1.14083 4.76383 1.60132 4.43406 2.18361C4.10429 2.7659 3.93941 3.4195 3.93941 4.1444C3.93941 4.88118 4.10429 5.54517 4.43406 6.13638C4.76383 6.72759 5.19906 7.19699 5.73977 7.54458C6.28047 7.89218 6.86871 8.06598 7.50448 8.06598Z" fill="#FFFAF6"/>
</g>
<defs>
<clipPath id="clip0_19_12">
<rect width="15" height="16.3192" fill="white"/>
</clipPath>
</defs>
</svg>
