<svg width="15" height="15" viewBox="0 0 15 15" fill="none" xmlns="http://www.w3.org/2000/svg">
<g clip-path="url(#clip0_32_158)">
<path d="M0 7.49999C0 7.72423 0.0803029 7.91514 0.240909 8.07272C0.401515 8.23029 0.590908 8.30908 0.80909 8.30908H6.6909V14.1909C6.6909 14.4091 6.76969 14.5985 6.92727 14.7591C7.08484 14.9197 7.27575 15 7.49999 15C7.72423 15 7.91666 14.9197 8.07726 14.7591C8.23787 14.5985 8.31817 14.4091 8.31817 14.1909V8.30908H14.1909C14.4091 8.30908 14.5985 8.23029 14.7591 8.07272C14.9197 7.91514 15 7.72423 15 7.49999C15 7.27575 14.9197 7.08332 14.7591 6.92272C14.5985 6.76211 14.4091 6.68181 14.1909 6.68181H8.31817V0.80909C8.31817 0.590908 8.23787 0.401515 8.07726 0.240909C7.91666 0.0803029 7.72423 0 7.49999 0C7.27575 0 7.08484 0.0803029 6.92727 0.240909C6.76969 0.401515 6.6909 0.590908 6.6909 0.80909V6.68181H0.80909C0.590908 6.68181 0.401515 6.76211 0.240909 6.92272C0.0803029 7.08332 0 7.27575 0 7.49999Z" fill="#FFFAF6"/>
</g>
<defs>
<clipPath id="clip0_32_158">
<rect width="15" height="15.009" fill="white"/>
</clipPath>
</defs>
</svg>
